<?xml version="1.0" encoding="UTF-8"?>
<svg width="397px" height="222px" viewBox="0 0 397 222" version="1.1" xmlns="http://www.w3.org/2000/svg" xmlns:xlink="http://www.w3.org/1999/xlink">
    <!-- Generator: Sketch 48.1 (47250) - http://www.bohemiancoding.com/sketch -->
    <title>logo</title>
    <desc>Created with Sketch.</desc>
    <defs>
        <radialGradient cx="50%" cy="50%" fx="50%" fy="50%" r="50%" gradientTransform="translate(0.500000,0.500000),scale(0.985443,1.000000),rotate(90.000000),translate(-0.500000,-0.500000)" id="radialGradient-1">
            <stop stop-color="#652D90" offset="0%"></stop>
            <stop stop-color="#262261" offset="100%"></stop>
        </radialGradient>
        <path d="M0,0.0801147178 C0,0.0801147178 53.2918352,63.0908743 137.718062,63.0908743 C222.142445,63.0908743 270.046595,0.0801147178 270.046595,0.0801147178 C270.046595,0.0801147178 206.094181,48.3433571 137.119707,48.3433571 C68.1436066,48.3433571 0,0.0801147178 0,0.0801147178 Z" id="path-2"></path>
        <linearGradient x1="100%" y1="50%" x2="0%" y2="50%" id="linearGradient-4">
            <stop stop-color="#FFFFFF" offset="0%"></stop>
            <stop stop-color="#211C1C" offset="100%"></stop>
        </linearGradient>
        <path d="M0.0868047948,0.00416596532 C0.0868047948,0.00416596532 49.3213397,58.4143112 127.322732,58.4143112 C205.323474,58.4143112 249.583297,0.00416596532 249.583297,0.00416596532 C249.583297,0.00416596532 190.499019,46.0713037 126.769904,46.0713037 C63.0454509,46.0713037 0.0868047948,0.00416596532 0.0868047948,0.00416596532 Z" id="path-5"></path>
        <linearGradient x1="100%" y1="49.999177%" x2="-3.47572329e-05%" y2="49.999177%" id="linearGradient-7">
            <stop stop-color="#FFFFFF" offset="0%"></stop>
            <stop stop-color="#211C1C" offset="100%"></stop>
        </linearGradient>
        <path d="M0.107552095,0.104683231 C0.107552095,0.104683231 51.3016554,60.634023 132.408747,60.634023 C213.513996,60.634023 259.533112,0.104683231 259.533112,0.104683231 C259.533112,0.104683231 198.092271,46.4697409 131.832072,46.4697409 C65.5750172,46.4697409 0.107552095,0.104683231 0.107552095,0.104683231 Z" id="path-8"></path>
        <linearGradient x1="0.000121172728%" y1="50.0008824%" x2="99.9997953%" y2="50.0008824%" id="linearGradient-10">
            <stop stop-color="#FFFFFF" offset="0%"></stop>
            <stop stop-color="#211C1C" offset="100%"></stop>
        </linearGradient>
        <path d="M0.00596186777,0.0459324382 C0.00596186777,0.0459324382 47.3041688,56.1625535 122.239969,56.1625535 C197.174143,56.1625535 239.689848,0.0459324382 239.689848,0.0459324382 C239.689848,0.0459324382 182.926363,44.3034389 121.707737,44.3034389 C60.4892188,44.3034389 0.00596186777,0.0459324382 0.00596186777,0.0459324382 Z" id="path-11"></path>
        <linearGradient x1="-0.000135675699%" y1="50%" x2="100.00009%" y2="50%" id="linearGradient-13">
            <stop stop-color="#FFFFFF" offset="0%"></stop>
            <stop stop-color="#211C1C" offset="100%"></stop>
        </linearGradient>
        <path d="M0.0868047948,0.081182914 C0.0868047948,0.081182914 49.3213397,58.4912213 127.322732,58.4912213 C205.323474,58.4912213 249.583297,0.081182914 249.583297,0.081182914 C249.583297,0.081182914 190.499019,46.1482138 126.769904,46.1482138 C63.0454509,46.1482138 0.0868047948,0.081182914 0.0868047948,0.081182914 Z" id="path-14"></path>
        <linearGradient x1="100%" y1="50.0009144%" x2="-3.47572329e-05%" y2="50.0009144%" id="linearGradient-16">
            <stop stop-color="#FFFFFF" offset="0%"></stop>
            <stop stop-color="#211C1C" offset="100%"></stop>
        </linearGradient>
        <path d="M0.00596186777,0.0170911398 C0.00596186777,0.0170911398 47.3041688,56.1315759 122.239969,56.1315759 C197.174143,56.1315759 239.689848,0.0170911398 239.689848,0.0170911398 C239.689848,0.0170911398 182.926363,44.2745976 121.707737,44.2745976 C60.4892188,44.2745976 0.00596186777,0.0170911398 0.00596186777,0.0170911398 Z" id="path-17"></path>
    </defs>
    <g id="IPM" stroke="none" stroke-width="1" fill="none" fill-rule="evenodd">
        <g id="logo">
            <g id="DispatcherParagon_LogoTextOutlines" transform="translate(63.000000, 0.000000)">
                <g id="g10" transform="translate(135.500000, 111.000000) scale(-1, 1) rotate(-180.000000) translate(-135.500000, -111.000000) ">
                    <g id="Group" transform="translate(-0.000000, 0.000000)">
                        <g id="g12">
                            <g id="g14" transform="translate(22.546700, -0.000000)">
                                <path d="M224.947775,110.861678 C224.947775,49.7116097 174.643703,0.141001903 112.590415,0.141001903 C50.5374523,0.141001903 0.233705217,49.7116097 0.233705217,110.861678 C0.233705217,172.01164 50.5374523,221.583423 112.590415,221.583423 C174.643703,221.583423 224.947775,172.01164 224.947775,110.861678" id="path56" fill="#26275D" fill-rule="nonzero"></path>
                                <ellipse id="Oval" fill="url(#radialGradient-1)" cx="112.352842" cy="110.717293" rx="112.352842" ry="110.717293"></ellipse>
                            </g>
                            <g id="g74" transform="translate(0.000000, 80.114718)">
                                <g id="g76-Clipped">
                                    <mask id="mask-3" fill="white">
                                        <use xlink:href="#path-2"></use>
                                    </mask>
                                    <g id="path80"></g>
                                    <g id="g76" mask="url(#mask-3)" fill="url(#linearGradient-4)" fill-rule="nonzero">
                                        <path d="M0,0.0801147178 C0,0.0801147178 53.2918352,63.0908743 137.718062,63.0908743 C222.142445,63.0908743 270.046595,0.0801147178 270.046595,0.0801147178 C270.046595,0.0801147178 206.094181,48.3433571 137.119707,48.3433571 C68.1436066,48.3433571 0,0.0801147178 0,0.0801147178" id="path88"></path>
                                    </g>
                                </g>
                            </g>
                            <g id="g90" transform="translate(10.189374, 47.321093)">
                                <g id="g92-Clipped">
                                    <mask id="mask-6" fill="white">
                                        <use xlink:href="#path-5"></use>
                                    </mask>
                                    <g id="path96"></g>
                                    <g id="g92" mask="url(#mask-6)" fill="url(#linearGradient-7)" fill-rule="nonzero">
                                        <path d="M0.0868047948,0.00416596532 C0.0868047948,0.00416596532 49.3213397,58.4143112 127.322732,58.4143112 C205.323474,58.4143112 249.583297,0.00416596532 249.583297,0.00416596532 C249.583297,0.00416596532 190.499019,46.0713037 126.769904,46.0713037 C63.0454509,46.0713037 0.0868047948,0.00416596532 0.0868047948,0.00416596532" id="path104"></path>
                                    </g>
                                </g>
                            </g>
                            <g id="g106" transform="translate(5.203085, 85.242060)">
                                <g id="g108-Clipped">
                                    <mask id="mask-9" fill="white">
                                        <use xlink:href="#path-8"></use>
                                    </mask>
                                    <g id="path112"></g>
                                    <g id="g108" mask="url(#mask-9)" fill="url(#linearGradient-10)" fill-rule="nonzero">
                                        <path d="M0.107552095,0.104683231 C0.107552095,0.104683231 51.3016554,60.634023 132.408747,60.634023 C213.513996,60.634023 259.533112,0.104683231 259.533112,0.104683231 C259.533112,0.104683231 198.092271,46.4697409 131.832072,46.4697409 C65.5750172,46.4697409 0.107552095,0.104683231 0.107552095,0.104683231" id="path120"></path>
                                    </g>
                                </g>
                            </g>
                            <g id="g122" transform="translate(15.175663, 53.943910)">
                                <g id="g124-Clipped">
                                    <mask id="mask-12" fill="white">
                                        <use xlink:href="#path-11"></use>
                                    </mask>
                                    <g id="path128"></g>
                                    <g id="g124" mask="url(#mask-12)" fill="url(#linearGradient-13)" fill-rule="nonzero">
                                        <path d="M0.00596186777,0.0459324382 C0.00596186777,0.0459324382 47.3041688,56.1625535 122.239969,56.1625535 C197.174143,56.1625535 239.689848,0.0459324382 239.689848,0.0459324382 C239.689848,0.0459324382 182.926363,44.3034389 121.707737,44.3034389 C60.4892188,44.3034389 0.00596186777,0.0459324382 0.00596186777,0.0459324382" id="path136"></path>
                                    </g>
                                </g>
                            </g>
                            <g id="g138" transform="translate(10.189374, 116.326570)">
                                <g id="g140-Clipped">
                                    <mask id="mask-15" fill="white">
                                        <use xlink:href="#path-14"></use>
                                    </mask>
                                    <g id="path144"></g>
                                    <g id="g140" mask="url(#mask-15)" fill="url(#linearGradient-16)" fill-rule="nonzero">
                                        <path d="M0.0868047948,0.081182914 C0.0868047948,0.081182914 49.3213397,58.4912213 127.322732,58.4912213 C205.323474,58.4912213 249.583297,0.081182914 249.583297,0.081182914 C249.583297,0.081182914 190.499019,46.1482138 126.769904,46.1482138 C63.0454509,46.1482138 0.0868047948,0.081182914 0.0868047948,0.081182914" id="path152"></path>
                                    </g>
                                </g>
                            </g>
                            <g id="g154" transform="translate(15.175663, 123.056206)">
                                <g id="g156-Clipped">
                                    <mask id="mask-18" fill="white">
                                        <use xlink:href="#path-17"></use>
                                    </mask>
                                    <g id="path160"></g>
                                    <g id="g156" mask="url(#mask-18)" fill="url(#linearGradient-13)" fill-rule="nonzero">
                                        <path d="M0.00596186777,0.0170911398 C0.00596186777,0.0170911398 47.3041688,56.1315759 122.239969,56.1315759 C197.174143,56.1315759 239.689848,0.0170911398 239.689848,0.0170911398 C239.689848,0.0170911398 182.926363,44.2745976 121.707737,44.2745976 C60.4892188,44.2745976 0.00596186777,0.0170911398 0.00596186777,0.0170911398" id="path168"></path>
                                    </g>
                                </g>
                            </g>
                        </g>
                    </g>
                </g>
            </g>
        </g>
    </g>
</svg>